<svg width="15" height="15" viewBox="0 0 15 15" fill="none" xmlns="http://www.w3.org/2000/svg">
<path fill-rule="evenodd" clip-rule="evenodd" d="M4.29608 0.0898271C3.10461 0.143586 2.07191 0.434885 1.23803 1.26525C0.401231 2.09997 0.11355 3.13676 0.0596571 4.31584C0.0261559 5.05176 -0.169741 10.6115 0.398319 12.0695C0.781395 13.0532 1.53588 13.8095 2.52852 14.1938C2.99171 14.374 3.52046 14.4959 4.29608 14.5315C10.7814 14.825 13.1855 14.6652 14.1992 12.0695C14.3791 11.6075 14.5029 11.0792 14.5372 10.3055C14.8336 3.80354 14.4891 2.3942 13.3588 1.26525C12.4623 0.370953 11.4078 -0.237814 4.29608 0.0898271ZM4.35578 13.2239C3.64571 13.1919 3.26045 13.0736 3.00337 12.9741C2.35666 12.7227 1.87089 12.239 1.62109 11.596C1.18849 10.4881 1.33197 5.22624 1.37057 4.37481C1.40844 3.54081 1.5774 2.77859 2.16585 2.19015C2.89413 1.46366 3.83506 1.10762 10.2418 1.39676C11.0778 1.43454 11.8418 1.60315 12.4317 2.19015C13.16 2.91662 13.5212 3.86479 13.227 10.2469C13.1949 10.9552 13.0762 11.3396 12.9765 11.596C12.3174 13.2851 10.8011 13.5196 4.35578 13.2239ZM10.3124 3.4324C10.3124 3.91333 10.7035 4.3044 11.1864 4.3044C11.6692 4.3044 12.061 3.91333 12.061 3.4324C12.061 2.95147 11.6692 2.56075 11.1864 2.56075C10.7035 2.56075 10.3124 2.95147 10.3124 3.4324ZM3.55905 7.31032C3.55905 9.37062 5.23338 11.041 7.29878 11.041C9.36419 11.041 11.0385 9.37062 11.0385 7.31032C11.0385 5.25003 9.36419 3.58071 7.29878 3.58071C5.23338 3.58071 3.55905 5.25003 3.55905 7.31032ZM4.87142 7.31032C4.87142 5.97361 5.95802 4.88908 7.29878 4.88908C8.63955 4.88908 9.72615 5.97361 9.72615 7.31032C9.72615 8.64777 8.63955 9.73264 7.29878 9.73264C5.95802 9.73264 4.87142 8.64777 4.87142 7.31032Z" fill="#E4F8FF"/>
</svg>
