<svg width="15" height="15" viewBox="0 0 15 15" fill="none" xmlns="http://www.w3.org/2000/svg">
<path d="M11.1423 13.977C10.9846 13.977 10.8562 13.849 10.8562 13.6913V9.34944C10.8562 7.77958 10.0505 7.77958 9.74683 7.77958C8.90062 7.77958 8.47211 8.30768 8.47211 9.34944V13.6918C8.47211 13.8495 8.34415 13.9775 8.18644 13.9775H5.73117C5.57346 13.9775 5.4455 13.8495 5.4455 13.6918V5.42029C5.4455 5.26258 5.57346 5.13462 5.73117 5.13462H8.18689C8.3446 5.13462 8.47256 5.26258 8.47256 5.42029V5.7285L8.62036 5.60639C9.20162 5.12561 9.89508 4.88184 10.6814 4.88184C11.6533 4.88184 12.4716 5.19229 13.0474 5.78031C13.6557 6.40123 13.977 7.32584 13.977 8.45367V13.6918C13.977 13.8495 13.8486 13.9775 13.6909 13.9775L11.1423 13.977ZM9.74729 7.20733C10.3754 7.20733 11.4289 7.4858 11.4289 9.34944V13.4057H13.4047V8.45367C13.4047 6.54722 12.4121 5.45409 10.6814 5.45409C9.13583 5.45409 8.46626 6.62112 8.43832 6.67068C8.38785 6.76215 8.29233 6.81893 8.18824 6.81893C8.16481 6.81893 8.14093 6.81532 8.1166 6.80946C7.98953 6.77747 7.90077 6.66437 7.90077 6.5346V5.70687H6.0173V13.4061H7.90077V9.34944C7.90077 8.00803 8.59107 7.20733 9.74729 7.20733Z" fill="#E4F8FF" stroke="#E4F8FF" stroke-width="0.5"/>
<path d="M1.53173 13.9772C1.37402 13.9772 1.24561 13.8492 1.24561 13.6915V5.42044C1.24561 5.26273 1.37402 5.13477 1.53173 5.13477H4.09334C4.25105 5.13477 4.37901 5.26273 4.37901 5.42044V13.6915C4.37901 13.8492 4.25105 13.9772 4.09334 13.9772H1.53173ZM1.81786 13.4058H3.80721V5.70657H1.81786V13.4058Z" fill="#E4F8FF" stroke="#E4F8FF" stroke-width="0.5"/>
<path d="M2.80101 4.6223C1.80791 4.6223 1 3.80988 1 2.81137C1 1.81242 1.80791 1 2.80101 1C3.79276 1 4.60022 1.81287 4.60022 2.81183C4.60022 3.80988 3.79276 4.6223 2.80101 4.6223ZM2.80101 1.57045C2.12332 1.57045 1.57225 2.12693 1.57225 2.81137C1.57225 3.49537 2.12332 4.05095 2.80101 4.05095C3.47825 4.05095 4.02887 3.49537 4.02887 2.81137C4.02842 2.12738 3.47825 1.57045 2.80101 1.57045Z" fill="#E4F8FF" stroke="#E4F8FF" stroke-width="0.5"/>
</svg>
