<svg width="13" height="13" viewBox="0 0 13 13" fill="none" xmlns="http://www.w3.org/2000/svg">
<path d="M0.0126633 6.50515C-0.00963523 5.68615 0.00430148 4.91396 0.00430148 4.26786C0.00430148 1.44819 1.98539 0.621395 1.98539 0.621395C2.98395 0.193698 4.69745 0.0136499 6.47994 0H6.52315C8.30494 0.0129999 10.0198 0.193698 11.0184 0.621395C11.0184 0.621395 12.9995 1.44819 12.9995 4.26786C12.9995 4.26786 13.0246 6.3485 12.7235 7.79343C12.5319 8.70993 11.0114 9.71417 9.26517 9.90852C8.35511 10.0099 7.45829 10.1035 6.50224 10.0619C4.93925 9.99496 3.70517 9.71417 3.70517 9.71417C3.70517 9.85587 3.71492 9.99107 3.73304 10.1172C3.79157 10.5286 3.94139 10.8289 4.15462 11.0499C4.68839 11.6024 5.62215 11.6544 6.52036 11.683C7.78859 11.724 8.91746 11.3912 8.91746 11.3912L8.97042 12.461C8.97042 12.461 8.08265 12.9056 6.50224 12.9875C5.63121 13.0317 4.54903 12.9667 3.28846 12.656C2.22092 12.3921 1.499 11.8175 1.00983 11.0499C0.248192 9.85197 0.0565636 8.18603 0.0126633 6.50515ZM2.3122 9.71417V8.05798L4.03616 8.45123C4.3369 8.51341 4.63972 8.56652 4.94413 8.61048C5.46884 8.68588 6.01586 8.74048 6.56635 8.76323C7.27642 8.79378 7.89103 8.75218 9.10003 8.61763C10.2589 8.48828 11.2936 7.84023 11.355 7.54514C11.4121 7.27084 11.4602 6.94584 11.4985 6.58184C11.5478 6.09656 11.5796 5.60988 11.594 5.12261C11.6044 4.79111 11.6079 4.50836 11.6058 4.30621V4.26786C11.6058 3.33837 11.3487 2.68318 10.9348 2.21518C10.8168 2.08006 10.6799 1.96027 10.5278 1.85898C10.4651 1.81738 10.4338 1.80113 10.4372 1.80243C9.73135 1.50019 8.28195 1.31364 6.52315 1.29999H6.49109C4.72114 1.31299 3.27174 1.50019 2.554 1.80828C2.57003 1.80178 2.53937 1.81738 2.47596 1.85898C2.32389 1.96027 2.18703 2.08006 2.06901 2.21518C1.65509 2.68318 1.39796 3.33902 1.39796 4.26786C1.39796 4.41866 1.39796 4.52591 1.39587 4.83661C1.38962 5.38218 1.39287 5.92782 1.40563 6.4733C1.44326 7.90133 1.58959 8.96602 1.89341 9.74992C2.04114 10.1315 2.22231 10.4454 2.43694 10.6924C2.34863 10.373 2.30714 10.044 2.3122 9.71417ZM3.5428 2.84048C3.75414 2.84048 3.95681 2.91878 4.10625 3.05817C4.25568 3.19756 4.33963 3.38662 4.33963 3.58375C4.33963 3.78087 4.25568 3.96993 4.10625 4.10932C3.95681 4.24871 3.75414 4.32701 3.5428 4.32701C3.33147 4.32701 3.1288 4.24871 2.97936 4.10932C2.82993 3.96993 2.74598 3.78087 2.74598 3.58375C2.74598 3.38662 2.82993 3.19756 2.97936 3.05817C3.1288 2.91878 3.33147 2.84048 3.5428 2.84048Z" fill="#E4F8FF"/>
</svg>
