<svg width="15" height="15" viewBox="0 0 15 15" fill="none" xmlns="http://www.w3.org/2000/svg">
<path fill-rule="evenodd" clip-rule="evenodd" d="M5.69853 12.8722C5.84192 13.141 5.9855 13.3832 6.12275 13.5978C4.66454 13.2698 3.39922 12.4322 2.52365 11.2819C3.10151 10.9565 3.84162 10.6192 4.73138 10.3723C4.98427 11.3642 5.34103 12.2019 5.69853 12.8722ZM6.8015 12.284C6.49092 11.7018 6.17967 10.9746 5.95542 10.113C6.43817 10.0413 6.9535 10 7.50008 10C8.04658 10 8.56192 10.0413 9.04458 10.1129C8.82033 10.9746 8.50908 11.7018 8.1985 12.284C7.9495 12.7509 7.70142 13.1237 7.5 13.3964C7.29858 13.1237 7.0505 12.7509 6.8015 12.284ZM5.625 7.5C5.625 7.98675 5.65775 8.44875 5.7155 8.88492C6.27242 8.7995 6.86783 8.75 7.50008 8.75C8.13225 8.75 8.72767 8.79942 9.2845 8.88492C9.34225 8.44867 9.375 7.98675 9.375 7.5C9.375 7.01325 9.34225 6.55133 9.2845 6.11508C8.72767 6.2005 8.13225 6.25 7.50008 6.25C6.86783 6.25 6.27242 6.2005 5.7155 6.11508C5.65775 6.55125 5.625 7.01325 5.625 7.5ZM4.48907 5.85733C4.41647 6.37317 4.375 6.92117 4.375 7.5C4.375 8.07883 4.41647 8.62683 4.48907 9.14267C3.42782 9.42758 2.54902 9.82933 1.86937 10.2159C1.47248 9.39467 1.25 8.47333 1.25 7.5C1.25 6.52667 1.47248 5.60537 1.86936 4.78407C2.54893 5.1706 3.42775 5.57238 4.48907 5.85733ZM5.95542 4.88704C6.43817 4.95868 6.9535 5 7.50008 5C8.04658 5 8.56192 4.95869 9.04458 4.88706C8.82033 4.02546 8.50908 3.29827 8.1985 2.716C7.9495 2.24912 7.70142 1.8763 7.5 1.6036C7.29858 1.8763 7.0505 2.24912 6.8015 2.71598C6.49092 3.29826 6.17967 4.02544 5.95542 4.88704ZM10.5109 5.85742C10.5835 6.37325 10.625 6.92125 10.625 7.5C10.625 8.07883 10.5835 8.62675 10.5109 9.14258C11.5722 9.42758 12.451 9.82933 13.1307 10.2159C13.5275 9.39458 13.75 8.47325 13.75 7.5C13.75 6.52675 13.5275 5.60539 13.1307 4.78411C12.4511 5.17064 11.5722 5.57242 10.5109 5.85742ZM12.4763 3.71815C11.8984 4.04359 11.1583 4.38087 10.2687 4.62773C10.0157 3.63587 9.659 2.79807 9.3015 2.12777C9.15808 1.85897 9.0145 1.61688 8.87725 1.40225C10.3355 1.73019 11.6008 2.5678 12.4763 3.71815ZM4.73138 4.62771C3.84168 4.38084 3.10158 4.04356 2.52366 3.71811C3.39922 2.56778 4.66454 1.73019 6.12267 1.40225C5.9855 1.61688 5.84192 1.85897 5.69852 2.12775C5.34103 2.79806 4.98427 3.63584 4.73138 4.62771ZM10.2687 10.3722C10.0157 11.3642 9.659 12.2019 9.3015 12.8722C9.15808 13.141 9.0145 13.3832 8.87725 13.5978C10.3355 13.2698 11.6008 12.4322 12.4764 11.2818C11.8985 10.9564 11.1584 10.6192 10.2687 10.3722ZM7.5 15C11.6422 15 15 11.6422 15 7.5C15 3.35787 11.6422 0 7.5 0C3.35787 0 0 3.35787 0 7.5C0 11.6422 3.35787 15 7.5 15Z" fill="#E4F8FF"/>
</svg>
