<svg width="258" height="26" viewBox="0 0 258 26" fill="none" xmlns="http://www.w3.org/2000/svg">
<path d="M15.7399 2.93573H0V0.587433H15.7399V2.93573ZM9.19786 20.5764H6.51394V2.65622H9.19786V20.5764Z" fill="#E2F8FF"/>
<path d="M31.507 20.5768H28.9069V12.5811C28.9069 11.2211 28.5994 10.2008 27.9846 9.52005C27.3695 8.84004 26.54 8.49968 25.4964 8.49968C24.7508 8.49968 24.0427 8.69537 23.3714 9.08675C22.7006 9.47777 22.1598 10.0933 21.7502 10.9318C21.3402 11.7703 21.135 12.8515 21.135 14.1744V20.5764H18.5349V0.44754H21.135V10.9595H20.7436C20.9484 9.78534 21.3169 8.85827 21.8478 8.1779C22.3791 7.49754 23.0172 7.00849 23.7628 6.71003C24.5081 6.4123 25.2817 6.26253 26.0831 6.26253C27.7605 6.26253 29.0837 6.78 30.053 7.81421C31.022 8.84879 31.5067 10.3444 31.5067 12.3013V20.5764L31.507 20.5768Z" fill="#E2F8FF"/>
<path d="M46.799 16.495L48.4206 18.1724C47.6936 19.0671 46.8034 19.766 45.7506 20.2693C44.6974 20.7725 43.5094 21.024 42.1862 21.024C40.6764 21.024 39.3347 20.7069 38.1605 20.0736C36.9864 19.4402 36.068 18.5685 35.407 17.4596C34.7452 16.3507 34.4143 15.0789 34.4143 13.6435C34.4143 12.208 34.731 10.9362 35.3647 9.82693C35.9981 8.71837 36.8745 7.84669 37.9925 7.21297C39.1109 6.57962 40.3689 6.26257 41.7668 6.26257C43.1271 6.26257 44.3341 6.57488 45.3872 7.19912C46.44 7.82373 47.2695 8.68084 47.8755 9.77117C48.4808 10.8615 48.784 12.1246 48.784 13.5596V13.7273H46.1562V13.4758C46.1562 12.4693 45.9696 11.5889 45.5971 10.8342C45.224 10.0791 44.7069 9.49203 44.0455 9.07259C43.3837 8.65351 42.6242 8.4436 41.7671 8.4436C40.8539 8.4436 40.0431 8.65825 39.335 9.0868C38.6266 9.51572 38.0771 10.1166 37.6857 10.8899C37.2943 11.6636 37.0986 12.5721 37.0986 13.6154C37.0986 14.6587 37.3176 15.5774 37.7556 16.3693C38.1933 17.1619 38.8041 17.7719 39.5868 18.2005C40.3696 18.6294 41.2642 18.8433 42.2708 18.8433C44.1158 18.8433 45.6256 18.0609 46.7997 16.4954L46.799 16.495ZM48.784 14.51H36.3432V12.5808H48.3368L48.7843 13.5596V14.51H48.784Z" fill="#E2F8FF"/>
<path d="M57.7297 20.5767V0.587433H64.3836C66.4523 0.587433 68.2741 1.01635 69.8491 1.87346C71.4237 2.73093 72.654 3.90981 73.5395 5.40975C74.4243 6.91042 74.8674 8.62973 74.8674 10.5677C74.8674 12.5057 74.4243 14.2301 73.5395 15.7395C72.654 17.2496 71.4241 18.4333 69.8491 19.29C68.2737 20.1478 66.4523 20.576 64.3836 20.576H57.7297V20.5767ZM60.4136 18.2004H64.3836C65.9491 18.2004 67.3094 17.8837 68.4654 17.25C69.6206 16.6166 70.5105 15.726 71.1351 14.5799C71.7593 13.4335 72.0716 12.0968 72.0716 10.5681C72.0716 9.03934 71.7593 7.7074 71.1351 6.57005C70.5105 5.4338 69.6206 4.54827 68.4654 3.91419C67.3094 3.2812 65.9491 2.96379 64.3836 2.96379H60.4136V18.2004Z" fill="#E2F8FF"/>
<path d="M79.5076 3.439C79.0225 3.439 78.6082 3.2761 78.2634 2.94958C77.9183 2.6238 77.7463 2.22768 77.7463 1.76122C77.7463 1.25796 77.9183 0.838886 78.2634 0.503259C78.6082 0.167996 79.0134 0 79.4795 0C79.9828 0 80.4022 0.167996 80.7375 0.503259C81.0731 0.838886 81.2407 1.24922 81.2407 1.73353C81.2407 2.21784 81.0731 2.6238 80.7375 2.94958C80.4022 3.2761 79.9919 3.439 79.5076 3.439ZM80.7936 20.5764H78.1935V6.70963H80.7936V20.5764Z" fill="#E2F8FF"/>
<path d="M83.3652 18.4519L85.0146 16.7741C85.6669 17.4453 86.4125 17.9719 87.251 18.3538C88.0899 18.7361 89.0027 18.9267 89.9907 18.9267C91.0344 18.9267 91.882 18.7172 92.5347 18.2977C93.187 17.8783 93.5131 17.3426 93.5131 16.6899C93.5131 16.0937 93.2336 15.6327 92.6742 15.3062C92.1152 14.9801 91.1459 14.7239 89.7666 14.5373C87.6978 14.2396 86.2204 13.7782 85.3353 13.1536C84.4497 12.5294 84.0073 11.6766 84.0073 10.5954C84.0073 9.73831 84.2588 8.98324 84.7624 8.33094C85.2657 7.67863 85.9548 7.17027 86.8312 6.80695C87.7069 6.44362 88.7134 6.26178 89.8504 6.26178C91.1175 6.26178 92.2548 6.48553 93.261 6.93303C94.2671 7.38054 95.1432 8.00478 95.8888 8.80613L94.2671 10.4839C93.7081 9.8316 93.0602 9.31449 92.324 8.93222C91.5875 8.55031 90.7629 8.35899 89.85 8.35899C88.8996 8.35899 88.1212 8.55469 87.5156 8.94607C86.9095 9.33745 86.6071 9.84071 86.6071 10.4558C86.6071 10.9409 86.8727 11.3181 87.4041 11.5881C87.9354 11.8581 88.853 12.0866 90.1576 12.2728C92.2635 12.5713 93.7781 13.0556 94.7008 13.7265C95.6235 14.3977 96.0848 15.339 96.0848 16.5503C96.0848 17.4264 95.8235 18.2044 95.3021 18.8844C94.7802 19.5652 94.0579 20.0914 93.1352 20.4642C92.2125 20.837 91.1455 21.0232 89.9342 21.0232C88.5735 21.0232 87.3483 20.7947 86.258 20.3381C85.1676 19.8818 84.203 19.2525 83.3645 18.4511L83.3652 18.4519Z" fill="#E2F8FF"/>
<path d="M109.841 16.6346L111.602 18.3124C110.931 19.1512 110.101 19.8127 109.114 20.297C108.125 20.7816 107.007 21.024 105.759 21.024C104.342 21.024 103.079 20.7069 101.971 20.0736C100.862 19.4402 99.99 18.5685 99.3566 17.4596C98.7229 16.3507 98.4062 15.0789 98.4062 13.6435C98.4062 12.227 98.7229 10.9643 99.3566 9.85499C99.99 8.74643 100.871 7.87001 101.999 7.22718C103.126 6.58399 104.398 6.26257 105.815 6.26257C107.045 6.26257 108.149 6.50528 109.128 6.98958C110.106 7.47426 110.931 8.13604 111.602 8.97419L109.841 10.652C109.412 9.99966 108.872 9.47745 108.219 9.08643C107.567 8.69505 106.784 8.49936 105.871 8.49936C104.939 8.49936 104.114 8.71874 103.397 9.1564C102.679 9.59443 102.12 10.2005 101.72 10.9734C101.319 11.747 101.119 12.6369 101.119 13.6435C101.119 14.65 101.319 15.5399 101.72 16.3132C102.12 17.0868 102.679 17.6925 103.397 18.1302C104.114 18.5682 104.939 18.7872 105.871 18.7872C106.803 18.7872 107.59 18.5915 108.233 18.2005C108.876 17.8091 109.412 17.2873 109.841 16.6346H109.841Z" fill="#E2F8FF"/>
<path d="M120.716 21.024C119.262 21.024 117.976 20.7069 116.858 20.0736C115.739 19.4402 114.863 18.5685 114.23 17.4596C113.596 16.3507 113.279 15.0789 113.279 13.6435C113.279 12.208 113.596 10.9413 114.23 9.84114C114.863 8.74133 115.74 7.87001 116.858 7.22718C117.976 6.58399 119.262 6.26257 120.716 6.26257C122.169 6.26257 123.451 6.58435 124.56 7.22718C125.668 7.87001 126.545 8.74133 127.187 9.84114C127.831 10.9413 128.152 12.208 128.152 13.6435C128.152 15.0789 127.831 16.3507 127.187 17.4596C126.545 18.5685 125.668 19.4402 124.56 20.0736C123.451 20.7069 122.169 21.024 120.716 21.024ZM120.716 18.7872C121.648 18.7872 122.468 18.5682 123.176 18.1302C123.884 17.6925 124.434 17.0868 124.825 16.3132C125.217 15.5399 125.412 14.65 125.412 13.6435C125.412 12.6369 125.217 11.747 124.825 10.9734C124.434 10.2005 123.884 9.59443 123.176 9.1564C122.468 8.71874 121.648 8.49936 120.716 8.49936C119.784 8.49936 118.964 8.71874 118.256 9.1564C117.547 9.59443 116.993 10.2005 116.592 10.9734C116.191 11.747 115.991 12.6369 115.991 13.6435C115.991 14.65 116.191 15.5399 116.592 16.3132C116.993 17.0868 117.547 17.6925 118.256 18.1302C118.964 18.5682 119.784 18.7872 120.716 18.7872Z" fill="#E2F8FF"/>
<path d="M137.741 20.5768H135.197L129.242 6.71005H132.01L136.958 19.0113H136.064L141.04 6.71005H143.696L137.741 20.5768Z" fill="#E2F8FF"/>
<path d="M157.199 16.495L158.821 18.1724C158.094 19.0671 157.204 19.766 156.151 20.2693C155.098 20.7725 153.91 21.024 152.586 21.024C151.077 21.024 149.735 20.7069 148.561 20.0736C147.387 19.4402 146.468 18.5685 145.807 17.4596C145.145 16.3507 144.814 15.0789 144.814 13.6435C144.814 12.208 145.131 10.9362 145.764 9.82693C146.398 8.71837 147.274 7.84669 148.392 7.21297C149.511 6.57962 150.769 6.26257 152.167 6.26257C153.527 6.26257 154.734 6.57488 155.787 7.19912C156.84 7.82373 157.67 8.68084 158.275 9.77117C158.881 10.8615 159.184 12.1246 159.184 13.5596V13.7273H156.556V13.4758C156.556 12.4693 156.369 11.5889 155.997 10.8342C155.624 10.0791 155.107 9.49203 154.445 9.07259C153.783 8.65351 153.024 8.4436 152.167 8.4436C151.253 8.4436 150.443 8.65825 149.735 9.0868C149.026 9.51572 148.476 10.1166 148.085 10.8899C147.694 11.6636 147.498 12.5721 147.498 13.6154C147.498 14.6587 147.717 15.5774 148.155 16.3693C148.593 17.1619 149.203 17.7719 149.987 18.2005C150.769 18.6294 151.664 18.8433 152.671 18.8433C154.516 18.8433 156.025 18.0605 157.199 16.495ZM159.184 14.51H146.744V12.5808H158.737L159.185 13.5596L159.184 14.51Z" fill="#E2F8FF"/>
<path d="M170.115 6.48663V8.94681H169.5C168.661 8.94681 167.892 9.14723 167.193 9.54773C166.495 9.94895 165.935 10.5728 165.516 11.4208C165.097 12.2692 164.887 13.3734 164.887 14.7337V20.5768H162.287V6.71002H164.859V11.1552H164.468C164.672 9.98102 165.05 9.05832 165.6 8.38743C166.149 7.71617 166.788 7.23186 167.515 6.93377C168.242 6.63604 168.987 6.48627 169.752 6.48627H170.115L170.115 6.48663Z" fill="#E2F8FF"/>
<path d="M183.255 6.71005H185.911L179.005 22.7852C178.576 23.8099 178.031 24.6022 177.37 25.1615C176.708 25.7206 175.762 26.0001 174.532 26.0001H173.022V23.8198H174.476C175.053 23.8198 175.534 23.6751 175.916 23.3865C176.298 23.0971 176.61 22.6737 176.852 22.1147L177.439 20.6329L171.457 6.71042H174.225L179.229 19.1516H178.222L183.254 6.71042L183.255 6.71005Z" fill="#E2F8FF"/>
<path d="M196.814 20.5767H194.13V0.587433H207.074V2.90767H196.814V20.5767ZM206.543 11.5469H196.534V9.22628H206.543V11.5469Z" fill="#E2F8FF"/>
<path d="M220.409 14.65L220.94 15.209C221.015 16.3459 220.814 17.3477 220.339 18.2143C219.864 19.0809 219.193 19.766 218.327 20.2693C217.46 20.7725 216.458 21.024 215.321 21.024C213.662 21.024 212.339 20.5305 211.351 19.5422C210.363 18.5547 209.87 17.1291 209.87 15.2651V6.71005H212.47V14.9852C212.47 16.2344 212.773 17.1797 213.378 17.8229C213.984 18.4661 214.827 18.7872 215.908 18.7872C216.672 18.7872 217.381 18.6152 218.033 18.2701C218.686 17.9253 219.226 17.441 219.655 16.8164C220.083 16.1922 220.335 15.4703 220.41 14.65H220.409ZM222.757 20.5768H220.185V17.8929L220.157 17.1105V6.71042H222.757V20.5772L222.757 20.5768Z" fill="#E2F8FF"/>
<path d="M239.419 20.5768H236.819V12.5811C236.819 11.2211 236.512 10.2008 235.897 9.52003C235.282 8.84003 234.452 8.49966 233.408 8.49966C232.663 8.49966 231.954 8.69535 231.284 9.08674C230.613 9.47775 230.072 10.0933 229.662 10.9318C229.252 11.7703 229.047 12.8515 229.047 14.1744V20.5764H226.447V6.70965H229.019V10.9591H228.628C228.832 9.78496 229.205 8.85788 229.746 8.17752C230.286 7.49715 230.929 7.00811 231.675 6.70965C232.42 6.41192 233.193 6.26215 233.995 6.26215C235.673 6.26215 236.996 6.77962 237.965 7.81383C238.934 8.84841 239.419 10.344 239.419 12.3009V20.576L239.419 20.5768Z" fill="#E2F8FF"/>
<path d="M257.088 20.5768H254.516V16.9705L254.488 16.8867V13.9513C254.488 12.8705 254.287 11.9201 253.887 11.0998C253.485 10.2799 252.926 9.64176 252.209 9.18478C251.491 8.72817 250.667 8.49968 249.735 8.49968C248.803 8.49968 247.983 8.72307 247.275 9.17057C246.566 9.61807 246.017 10.2285 245.625 11.0018C245.234 11.7754 245.038 12.6558 245.038 13.6438C245.038 14.6317 245.243 15.5169 245.653 16.2996C246.063 17.082 246.627 17.6928 247.345 18.1305C248.062 18.5685 248.896 18.7875 249.847 18.7875C250.704 18.7875 251.487 18.6155 252.195 18.2704C252.903 17.9257 253.486 17.4366 253.943 16.8029C254.399 16.1695 254.665 15.4516 254.74 14.6503L255.271 15.1813C255.383 16.2814 255.201 17.2737 254.726 18.1589C254.251 19.0444 253.556 19.7434 252.643 20.2558C251.73 20.7678 250.649 21.0243 249.4 21.0243C248.04 21.0243 246.824 20.7073 245.752 20.0739C244.68 19.4406 243.841 18.5689 243.236 17.4599C242.629 16.351 242.327 15.0792 242.327 13.6438C242.327 12.2273 242.63 10.9646 243.236 9.85531C243.841 8.74676 244.675 7.87034 245.738 7.22751C246.8 6.58431 247.993 6.26289 249.316 6.26289C250.341 6.26289 251.264 6.45859 252.084 6.84997C252.904 7.24135 253.584 7.79126 254.125 8.49932C254.665 9.20774 255 10.0277 255.131 10.9595H254.488V0.44754H257.088V20.5764L257.088 20.5768Z" fill="#E2F8FF"/>
<path d="M123.5 7L125 6.5L127.5 8.5L130 15H124.5L123.5 10.5L122 9.5L121.5 8.5L123.5 7Z" fill="url(#paint0_linear_1492_247)"/>
<path d="M117.078 11.9885L117.003 11.4163C116.669 11.5585 116.344 11.6634 116.016 11.7367C115.578 11.8351 115.135 11.8846 114.698 11.8846C114.185 11.8846 113.669 11.8165 113.163 11.6813C112.869 11.6015 112.609 11.4069 112.446 11.1459C112.387 11.0516 112.332 10.9532 112.275 10.8479L111.723 9.85263L112.324 9.51227L110.803 7.61402L112.433 6.69241L112.589 6.60714C112.657 6.57033 112.726 6.53389 112.792 6.49344C112.987 6.37246 113.203 6.30941 113.429 6.30941C113.588 6.30941 113.747 6.34185 113.901 6.40489C113.901 6.40489 115.8 7.17672 116.199 7.34071C117.482 6.61771 118.767 5.89908 120.052 5.18009L120.34 5.01829C120.706 4.81203 121.072 4.60613 121.444 4.4108C121.897 4.17321 122.357 4.05295 122.813 4.05295C122.861 4.05295 122.909 4.05441 122.957 4.05696C123.23 4.07226 123.5 4.12984 123.738 4.22386C124.451 4.50737 124.859 5.21726 124.754 5.99018C124.697 6.40671 124.518 6.79482 124.206 7.17599C123.837 7.62787 123.384 7.89681 122.953 8.13441C122.619 8.31844 122.285 8.50611 121.951 8.69488C121.951 8.69488 120.66 10.9692 120.325 11.5555C120.196 11.7819 120 11.9797 119.774 12.112C119.505 12.2691 119.233 12.4203 118.962 12.5715L118.717 12.7082C118.669 12.7352 118.621 12.7578 118.562 12.7836L117.303 13.3306L117.079 11.9885H117.078Z" fill="#1C1C1E"/>
<path d="M113.892 9.81438C113.382 9.17884 112.882 8.55423 112.372 7.9176C112.567 7.80718 112.753 7.7004 112.941 7.59509C113.072 7.52148 113.206 7.45442 113.334 7.37571C113.395 7.33781 113.444 7.33672 113.51 7.36368C114.382 7.72008 115.256 8.07247 116.127 8.43069C116.231 8.47333 116.308 8.46713 116.407 8.41138C117.789 7.63262 119.173 6.85787 120.557 6.08349C121.012 5.82913 121.464 5.56966 121.925 5.32733C122.227 5.1688 122.554 5.07187 122.899 5.09118C123.054 5.09957 123.214 5.13054 123.357 5.18739C123.632 5.29635 123.768 5.55764 123.728 5.85099C123.693 6.109 123.566 6.32327 123.404 6.52115C123.147 6.83637 122.803 7.03498 122.454 7.22739C122.057 7.44641 121.661 7.66834 121.267 7.89318C121.219 7.92088 121.174 7.96861 121.146 8.01745C120.572 9.02542 120.002 10.0352 119.426 11.0421C119.386 11.1124 119.32 11.178 119.25 11.2188C118.907 11.4193 118.558 11.6106 118.211 11.8045C118.182 11.8205 118.151 11.8325 118.105 11.8537C118.015 11.1744 117.927 10.5046 117.837 9.81329C117.693 9.89273 117.556 9.96452 117.423 10.0429C116.909 10.3442 116.375 10.595 115.789 10.7262C114.998 10.9036 114.212 10.8894 113.429 10.6806C113.389 10.6697 113.345 10.6325 113.322 10.5957C113.255 10.4882 113.197 10.3741 113.126 10.2477C113.378 10.1048 113.63 9.96234 113.892 9.81365L113.892 9.81438Z" fill="#E2F8FF"/>
<path d="M117.447 10.8443L117.733 8.9071L117.965 10.8513C117.997 11.2394 117.404 11.2314 117.447 10.844L117.447 10.8443Z" fill="#1C1C1E"/>
<path d="M117.067 8.02184L115.417 8.99483L116.746 7.61551C117.023 7.34184 117.397 7.81594 117.067 8.02184Z" fill="#1C1C1E"/>
<defs>
<linearGradient id="paint0_linear_1492_247" x1="122" y1="8.5" x2="124.5" y2="14" gradientUnits="userSpaceOnUse">
<stop stop-color="#1D1D1F"/>
<stop offset="0.1875" stop-color="#1D1D1F" stop-opacity="0.84375"/>
<stop offset="1" stop-color="#1D1D1F" stop-opacity="0"/>
</linearGradient>
</defs>
</svg>
