<svg width="536" height="220" viewBox="0 0 536 220" fill="none" xmlns="http://www.w3.org/2000/svg">
<g clip-path="url(#clip0_1595_151)">
<rect x="-72" y="83" width="275" height="53" fill="url(#paint0_linear_1595_151)"/>
<rect x="309.239" y="81.2388" width="223" height="65.9119" rx="32.956" transform="rotate(-1.37987 309.239 81.2388)" fill="#1C1C1E"/>
<path d="M505.466 98.2212C502.29 94.8173 498.255 91.8392 494.025 89.5202C484.599 84.326 473.93 82.3518 463.044 82.3004C446.398 82.2175 429.752 82.7034 413.108 83.0218C362.461 83.9924 311.793 84.9688 261.144 86.091C261.117 86.0936 261.092 86.0898 261.061 86.0828L224.476 87.5445L250.343 79.895C232.067 59.8181 213.659 39.8298 195.35 19.7775C193.913 18.1928 192.51 17.5537 190.206 17.6808C185.428 17.9564 180.629 17.846 175.839 17.9474C168.98 18.0898 162.103 18.2791 154.944 18.4525C159.714 41.7041 164.396 64.5209 169.153 87.7343C159.529 87.9647 150.305 88.1885 141.071 88.4153C141.148 92.6106 141.058 96.3249 141.345 99.9973C141.436 101.251 142.095 102.795 143.081 103.633C161.963 119.645 183.897 130.723 208.844 136.954C227.313 141.573 246.138 142.43 265.154 141.72C267.003 141.646 268.962 141.656 270.828 141.629L291.013 116.857L276.075 151.588C269.692 166.967 263.395 182.123 257.053 197.386C258.676 197.474 259.74 197.597 260.805 197.583C273.498 197.348 286.195 197.194 298.878 196.737C301.462 196.642 304.321 195.87 306.507 194.612C337.888 176.668 369.166 158.569 400.524 140.573C402.051 139.701 404.032 139.089 405.811 139.045C420.293 138.658 434.783 138.362 449.274 138.171C462.013 138.006 474.677 137.596 486.685 133.031C494.229 130.168 501.024 126.406 505.899 120.28C511.44 113.306 511.553 104.764 505.452 98.2304L505.466 98.2212Z" fill="#7B7B7C"/>
</g>
<defs>
<linearGradient id="paint0_linear_1595_151" x1="203" y1="110" x2="-35.0469" y2="110" gradientUnits="userSpaceOnUse">
<stop stop-color="#1C1C1E"/>
<stop offset="0.33" stop-color="#1C1C1E" stop-opacity="0.950144"/>
<stop offset="0.84" stop-color="#1C1C1E" stop-opacity="0"/>
<stop offset="1" stop-color="#1C1C1E" stop-opacity="0"/>
</linearGradient>
<clipPath id="clip0_1595_151">
<rect width="536" height="220" fill="white"/>
</clipPath>
</defs>
</svg>
